<svg width="115" height="204" viewBox="0 0 115 204" fill="none" xmlns="http://www.w3.org/2000/svg">
<path d="M13.6098 115.075C29.6696 119.522 33.4639 118.277 36.326 122.629C36.6546 123.129 38.3327 125.682 37.9971 128.96C37.7291 131.571 36.2904 133.587 35.3855 134.473C29.8838 139.857 14.7451 133.27 6.07501 126.065C4.18485 124.495 -0.886989 120.281 0.134494 117.288C0.553135 116.062 1.85302 115.453 2.78589 115.031C6.9102 113.166 11.188 114.404 13.6098 115.075Z" fill="url(#paint0_linear_10619_41204)"/>
<path d="M63.1948 5.93945H59.7766V28.6169H63.1948V5.93945Z" fill="url(#paint1_linear_10619_41204)"/>
<path d="M73.2893 41.1436H49.6822C47.9413 41.1436 46.5305 39.7173 46.5305 37.9573V29.4275C46.5305 27.6675 47.9413 26.2412 49.6822 26.2412H73.2893C75.0302 26.2412 76.441 27.6675 76.441 29.4275V37.9573C76.4403 39.7173 75.0295 41.1436 73.2893 41.1436Z" fill="url(#paint2_linear_10619_41204)"/>
<path d="M114.999 90.71C114.999 104.487 103.952 115.655 90.3253 115.655H32.6457C19.0747 115.655 7.97168 104.43 7.97168 90.71V77.7517C7.97168 53.3411 27.7266 33.3682 51.8725 33.3682H71.0992C95.2444 33.3682 115 53.3404 115 77.7517L114.999 90.71Z" fill="url(#paint3_linear_10619_41204)"/>
<path d="M98.1648 88.3473C96.7644 89.047 95.1945 89.4138 93.5995 89.4138H29.3716C27.7766 89.4138 26.2067 89.047 24.8063 88.3473C21.3665 86.6282 19.4254 83.1569 19.911 79.596L19.9466 79.3371C21.5925 67.2753 32.3977 58.0021 45.6449 57.3051C51.2498 57.0103 57.1317 56.8579 63.2669 56.8939C68.0729 56.9221 72.7184 57.0646 77.1916 57.2974C90.489 57.9901 101.374 67.2267 103.026 79.3343C103.038 79.421 103.05 79.5085 103.061 79.5953C103.546 83.1569 101.605 86.6282 98.1648 88.3473Z" fill="#EDEDEE"/>
<path d="M44 86C50.6274 86 56 80.6274 56 74C56 67.3726 50.6274 62 44 62C37.3726 62 32 67.3726 32 74C32 80.6274 37.3726 86 44 86Z" fill="url(#paint4_radial_10619_41204)"/>
<path d="M43.5 82C48.1944 82 52 78.1944 52 73.5C52 68.8056 48.1944 65 43.5 65C38.8056 65 35 68.8056 35 73.5C35 78.1944 38.8056 82 43.5 82Z" fill="#EEFDFF"/>
<path d="M44 81C47.866 81 51 77.866 51 74C51 70.134 47.866 67 44 67C40.134 67 37 70.134 37 74C37 77.866 40.134 81 44 81Z" fill="url(#paint5_linear_10619_41204)"/>
<path d="M48 71.5C48 72.8809 46.8809 74 45.5 74C44.1191 74 43 72.8803 43 71.5C43 70.1197 44.1191 69 45.5 69C46.8809 69 48 70.1197 48 71.5Z" fill="#EEFDFF"/>
<path d="M77 86C83.6274 86 89 80.6274 89 74C89 67.3726 83.6274 62 77 62C70.3726 62 65 67.3726 65 74C65 80.6274 70.3726 86 77 86Z" fill="url(#paint6_radial_10619_41204)"/>
<path d="M76.5 82C81.1944 82 85 78.1944 85 73.5C85 68.8056 81.1944 65 76.5 65C71.8056 65 68 68.8056 68 73.5C68 78.1944 71.8056 82 76.5 82Z" fill="#EEFDFF"/>
<path d="M77 81C80.866 81 84 77.866 84 74C84 70.134 80.866 67 77 67C73.134 67 70 70.134 70 74C70 77.866 73.134 81 77 81Z" fill="url(#paint7_linear_10619_41204)"/>
<path d="M81 71.5C81 72.8809 79.8804 74 78.5003 74C77.1202 74 76 72.8803 76 71.5C76 70.1197 77.1196 69 78.5003 69C79.8811 69 81 70.1197 81 71.5Z" fill="#EEFDFF"/>
<path d="M65.8649 4.42784C65.8649 6.87278 63.9042 8.85569 61.4852 8.85569C59.0668 8.85569 57.1062 6.87349 57.1062 4.42784C57.1062 1.9829 59.0668 0 61.4852 0C63.9042 0 65.8649 1.98219 65.8649 4.42784Z" fill="url(#paint8_linear_10619_41204)"/>
<g style="mix-blend-mode:overlay" opacity="0.4">
<path d="M64.5301 2.69992C64.5301 3.44563 63.9321 4.04953 63.1946 4.04953C62.4571 4.04953 61.8591 3.44492 61.8591 2.69992C61.8591 1.95422 62.4571 1.34961 63.1946 1.34961C63.9321 1.35031 64.5301 1.95422 64.5301 2.69992Z" fill="white"/>
</g>
<g style="mix-blend-mode:overlay" opacity="0.4">
<path d="M99.1942 47.5643C99.2521 49.6312 97.5831 52.1036 95.6713 52.3146C93.8796 52.5128 92.4485 50.6618 90.9728 48.753C89.518 46.8716 86.3371 42.0382 87.6041 40.6711C89.2738 38.8688 99.0568 42.6879 99.1942 47.5643Z" fill="white"/>
</g>
<g style="mix-blend-mode:overlay" opacity="0.4">
<path d="M82.824 39.6858C83.6644 39.6858 84.3458 38.9969 84.3458 38.1471C84.3458 37.2973 83.6644 36.6084 82.824 36.6084C81.9836 36.6084 81.3022 37.2973 81.3022 38.1471C81.3022 38.9969 81.9836 39.6858 82.824 39.6858Z" fill="white"/>
</g>
<path d="M98.977 76.2397C98.4885 76.5881 95.0843 69.5764 85.9454 63.4972C82.733 61.3598 79.5618 59.8368 79.7502 59.3938C79.9414 58.9445 83.5131 59.7804 86.3724 61.1214C95.4834 65.3947 99.5575 75.8256 98.977 76.2397Z" fill="white"/>
<g style="mix-blend-mode:overlay" opacity="0.4">
<path d="M75.5752 30.6529C75.4663 30.6685 75.3966 30.0215 74.8635 29.0219C74.8635 29.0219 74.6144 28.5541 74.3297 28.1576C73.4122 26.8807 70.3017 26.9089 70.0575 26.911C65.2131 26.9533 62.0985 26.6429 62.0999 26.6726C62.1006 26.6973 64.3724 26.6507 66.0372 26.6168C70.7336 26.5202 73.5315 26.2648 74.7309 27.5368C75.2284 28.0645 75.4789 28.7516 75.4789 28.7516C75.818 29.6843 75.705 30.6339 75.5752 30.6529Z" fill="white"/>
</g>
<path d="M74.5678 94.6699C74.4492 95.8431 73.4835 96.7469 72.3225 96.8597L56.2787 98.4238C55.1184 98.5367 53.9993 97.8376 53.6608 96.7088C53.5101 96.2072 53.3943 95.69 53.3155 95.1581C53.2938 95.0113 53.3322 94.8618 53.4229 94.744C53.5136 94.6269 53.6476 94.5528 53.7941 94.538L74.0347 92.564C74.1791 92.5499 74.3222 92.5964 74.4317 92.6924C74.5412 92.7883 74.6061 92.9259 74.6124 93.072C74.6368 93.6131 74.6208 94.1464 74.5678 94.6699Z" fill="white"/>
<path d="M74.5689 94.6719C74.056 99.7 70.102 103.834 64.9366 104.332C59.8418 104.831 55.2402 101.637 53.7275 96.9073C54.1315 97.9182 55.1823 98.534 56.2785 98.4232L72.3264 96.8615C73.486 96.7451 74.4475 95.8443 74.5689 94.6719Z" fill="#C7C8C9"/>
<path d="M99.8463 131.101C99.8463 131.25 99.8463 131.392 99.8401 131.528C99.7891 132.889 99.4744 133.912 99.321 134.372C94.905 148.011 92.2585 155.204 88.5479 161.022C87.9074 162.026 87.2341 162.991 86.5099 163.937C85.5616 165.201 84.5234 166.432 83.3693 167.702C80.8059 170.521 76.9286 171.797 75.6789 172.238C71.1094 173.871 67.0717 173.573 64.3868 173.599H63.9186C61.2267 173.573 57.1959 173.871 52.6264 172.238C51.3768 171.797 47.4932 170.521 44.936 167.702C37.8861 159.946 35.1754 153.499 28.9844 134.372C28.8372 133.932 28.542 132.979 28.4716 131.703C28.4527 131.333 28.4457 130.965 28.4653 130.595C28.5999 128.308 29.5161 126.065 31.1446 124.018C33.9327 120.507 38.2392 118.583 42.6935 118.563L64.1565 118.472L85.2288 118.388C89.7794 118.368 94.1884 120.299 97.0784 123.856C98.476 125.579 99.3663 127.439 99.6935 129.357C99.7382 129.629 99.7766 129.908 99.8024 130.18C99.8268 130.485 99.8463 130.79 99.8463 131.101Z" fill="url(#paint9_linear_10619_41204)"/>
<path d="M64.1519 118.475L42.6889 118.566C38.2346 118.585 33.9281 120.51 31.14 124.021C29.5122 126.069 28.5961 128.311 28.4607 130.598C28.5695 128.252 29.5247 125.952 31.223 123.859C34.1068 120.302 38.5227 118.371 43.0727 118.391L64.1519 118.475Z" fill="url(#paint10_linear_10619_41204)"/>
<path d="M85.4837 150.443C85.1705 133.611 82.9175 130.282 86.2401 126.279C86.6217 125.819 88.5705 123.47 91.7752 122.871C94.3289 122.393 96.6468 123.22 97.7436 123.848C104.406 127.663 102.429 144.206 98.0402 154.649C97.0836 156.926 94.5166 163.034 91.388 162.888C90.1062 162.828 89.1608 161.739 88.4979 160.954C85.564 157.479 85.5312 152.98 85.4837 150.443Z" fill="url(#paint11_linear_10619_41204)"/>
<path d="M88.5465 161.02C87.906 162.025 87.2326 162.99 86.5084 163.936C86.2774 163.696 86.0723 163.456 85.8867 163.236C82.9514 159.763 82.9192 155.266 82.8746 152.727C82.5606 135.894 80.3048 132.57 83.6309 128.565C83.8745 128.267 84.7655 127.198 86.214 126.311C82.9325 130.302 85.1694 133.658 85.4834 150.44C85.5281 152.979 85.5665 157.476 88.4955 160.956C88.5144 160.975 88.5339 160.994 88.5465 161.02Z" fill="white"/>
<g style="mix-blend-mode:overlay" opacity="0.4">
<path d="M97.9422 136.426C97.848 134.617 97.5124 133.288 96.8411 130.627C95.9634 127.146 94.8624 125.45 95.5776 124.778C96.0429 124.34 96.9598 124.636 97.1677 124.703C100.314 125.718 101.289 131.686 101.153 135.421C101.07 137.708 100.518 140.265 99.6893 140.378C99.5588 140.396 99.2337 140.379 99.0013 140.171C98.0761 139.345 98.014 137.801 97.9422 136.426Z" fill="white"/>
</g>
<g style="mix-blend-mode:overlay" opacity="0.4">
<path d="M100.103 142.809C100.103 143.173 99.8104 143.469 99.4497 143.469C99.089 143.469 98.7966 143.173 98.7966 142.809C98.7966 142.444 99.089 142.148 99.4497 142.148C99.8104 142.148 100.103 142.444 100.103 142.809Z" fill="white"/>
</g>
<path d="M63.1949 204C82.1039 204 97.4327 197.656 97.4327 189.829C97.4327 182.003 82.1039 175.658 63.1949 175.658C44.2858 175.658 28.957 182.003 28.957 189.829C28.957 197.656 44.2858 204 63.1949 204Z" fill="url(#paint12_radial_10619_41204)"/>
<defs>
<linearGradient id="paint0_linear_10619_41204" x1="19.0206" y1="114.047" x2="19.0206" y2="136.445" gradientUnits="userSpaceOnUse">
<stop stop-color="#9A40DE"/>
<stop offset="1" stop-color="#355CFE"/>
</linearGradient>
<linearGradient id="paint1_linear_10619_41204" x1="61.4857" y1="5.93945" x2="61.4857" y2="28.6169" gradientUnits="userSpaceOnUse">
<stop stop-color="#9A40DE"/>
<stop offset="1" stop-color="#355CFE"/>
</linearGradient>
<linearGradient id="paint2_linear_10619_41204" x1="61.4858" y1="26.2412" x2="61.4858" y2="41.1436" gradientUnits="userSpaceOnUse">
<stop stop-color="#9A40DE"/>
<stop offset="1" stop-color="#355CFE"/>
</linearGradient>
<linearGradient id="paint3_linear_10619_41204" x1="61.4858" y1="33.3682" x2="61.4858" y2="115.655" gradientUnits="userSpaceOnUse">
<stop stop-color="#9A40DE"/>
<stop offset="1" stop-color="#355CFE"/>
</linearGradient>
<radialGradient id="paint4_radial_10619_41204" cx="0" cy="0" r="1" gradientUnits="userSpaceOnUse" gradientTransform="translate(43.9997 73.9999) scale(11.8758)">
<stop offset="0.1296" stop-color="#3280FC"/>
<stop offset="1"/>
</radialGradient>
<linearGradient id="paint5_linear_10619_41204" x1="36.9995" y1="73.9999" x2="51" y2="73.9999" gradientUnits="userSpaceOnUse">
<stop stop-color="#030D14"/>
<stop offset="1" stop-color="#0B2F45"/>
</linearGradient>
<radialGradient id="paint6_radial_10619_41204" cx="0" cy="0" r="1" gradientUnits="userSpaceOnUse" gradientTransform="translate(76.9999 73.9999) scale(11.8758)">
<stop offset="0.1296" stop-color="#3280FC"/>
<stop offset="1"/>
</radialGradient>
<linearGradient id="paint7_linear_10619_41204" x1="69.9996" y1="73.9999" x2="84.0001" y2="73.9999" gradientUnits="userSpaceOnUse">
<stop stop-color="#030D14"/>
<stop offset="1" stop-color="#0B2F45"/>
</linearGradient>
<linearGradient id="paint8_linear_10619_41204" x1="61.4855" y1="0" x2="61.4855" y2="8.85569" gradientUnits="userSpaceOnUse">
<stop stop-color="#9A40DE"/>
<stop offset="1" stop-color="#355CFE"/>
</linearGradient>
<linearGradient id="paint9_linear_10619_41204" x1="64.15" y1="118.388" x2="64.15" y2="173.605" gradientUnits="userSpaceOnUse">
<stop stop-color="#9A40DE"/>
<stop offset="1" stop-color="#355CFE"/>
</linearGradient>
<linearGradient id="paint10_linear_10619_41204" x1="38.3985" y1="132.13" x2="72.0844" y2="93.2217" gradientUnits="userSpaceOnUse">
<stop offset="0.0397" stop-color="#06CFF1"/>
<stop offset="1" stop-color="#DEFA8E"/>
</linearGradient>
<linearGradient id="paint11_linear_10619_41204" x1="93.2533" y1="122.729" x2="93.2533" y2="162.89" gradientUnits="userSpaceOnUse">
<stop stop-color="#9A40DE"/>
<stop offset="1" stop-color="#355CFE"/>
</linearGradient>
<radialGradient id="paint12_radial_10619_41204" cx="0" cy="0" r="1" gradientUnits="userSpaceOnUse" gradientTransform="translate(63.1949 189.829) scale(34.2377 14.1706)">
<stop stop-color="#DCDCDC"/>
<stop offset="1" stop-color="white"/>
</radialGradient>
</defs>
</svg>
